<svg xmlns="http://www.w3.org/2000/svg" version="1.1" id="Layer_1" x="0" y="0" viewBox="0 0 100 100" style="enable-background:new 0 0 100 100" xml:space="preserve"><style>.st0{fill:none;stroke:#ffd014;stroke-width:3;stroke-linecap:round;stroke-linejoin:round;stroke-miterlimit:10}</style><path class="st0" d="M71 40.7c0 13.3-9.1 24.1-20.4 24.1-11.2 0-20.4-10.8-20.4-24.1V8.3H71v32.4z"/><path class="st0" d="M55.4 64v1.4C55.4 74 62.4 81 71 81h0v8H30.5v-8h0c8.6 0 15.1-7 15.1-15.6V64M70.7 16.4H87s-.9 24.4-16.9 31.5M30.3 16.4H14s.9 24.4 16.9 31.5M50.2 19.2 46.4 27l-8.6 1.2c-.7.1-1.1 1-.5 1.6l6.2 6.1-1.5 8.6c-.1.7.6 1.3 1.3 1l7.9-4 7.5 3.9c.7.4 1.5-.2 1.3-1l-1.5-8.5 6.2-6.1c.5-.5.2-1.5-.5-1.6L55.7 27l-3.8-7.8c-.4-.6-1.4-.6-1.7 0z"/></svg>