<svg xmlns="http://www.w3.org/2000/svg" version="1.1" id="Layer_1" x="0" y="0" viewBox="0 0 100 100" style="enable-background:new 0 0 100 100" xml:space="preserve"><style>.st0,.st1{fill:none;stroke:#ffd014;stroke-width:3;stroke-linecap:round;stroke-linejoin:round;stroke-miterlimit:10}.st1{stroke-width:2}</style><path class="st0" d="M15.4 32.9H32v45.3H15.4zM32 37.5s13.9-9 13.2-17.6c-.7-8.6 3.7-9.5 6.3-8.5 2.6 1.1 7.6 5.2 8 13.5.4 7.3-2.9 10.1-2.9 10.1h22.2c3.4 0 6.1 2.5 6.1 5.5h0c0 3.1-2.7 5.6-6.1 5.6"/><path class="st1" d="M74.8 46.3h5.7c3.6 0 6.5 2.8 6.5 6.2h0c0 3.4-2.9 6.2-6.5 6.2h-6.8"/><path class="st1" d="M72.3 58.6h4.6c3.6 0 6.5 2.8 6.5 6.2h0c0 3.4-2.9 6.2-6.5 6.2h-4.6M67.4 71h4.9c3.6 0 6.5 2.8 6.5 6.2h0c0 3.4-2.9 6.2-6.5 6.2l-13.9-.1C50.1 83 31 75.8 31 75.8"/></svg>